<svg width="48" height="48" viewBox="0 0 48 48" fill="none" xmlns="http://www.w3.org/2000/svg">
<g clip-path="url(#clip0_2966_33038)">
<path d="M25.8787 24.0003L36.932 12.947C37.1504 12.6919 37.2646 12.3638 37.2516 12.0282C37.2386 11.6926 37.0995 11.3743 36.8621 11.1369C36.6246 10.8994 36.3063 10.7603 35.9707 10.7473C35.6352 10.7344 35.3071 10.8485 35.052 11.067L23.9987 22.1203L12.9453 11.0536C12.6943 10.8025 12.3537 10.6615 11.9987 10.6615C11.6436 10.6615 11.3031 10.8025 11.052 11.0536C10.8009 11.3047 10.6599 11.6452 10.6599 12.0003C10.6599 12.3554 10.8009 12.6959 11.052 12.947L22.1187 24.0003L11.052 35.0536C10.9124 35.1732 10.7991 35.3202 10.719 35.4857C10.639 35.6511 10.594 35.8313 10.5869 36.0149C10.5798 36.1985 10.6108 36.3816 10.6778 36.5527C10.7448 36.7238 10.8465 36.8792 10.9765 37.0092C11.1064 37.1391 11.2618 37.2408 11.4329 37.3078C11.604 37.3748 11.7871 37.4058 11.9707 37.3987C12.1544 37.3916 12.3345 37.3466 12.5 37.2666C12.6654 37.1866 12.8125 37.0732 12.932 36.9336L23.9987 25.8803L35.052 36.9336C35.3071 37.1521 35.6352 37.2662 35.9707 37.2532C36.3063 37.2403 36.6246 37.1012 36.8621 36.8637C37.0995 36.6262 37.2386 36.3079 37.2516 35.9724C37.2646 35.6368 37.1504 35.3087 36.932 35.0536L25.8787 24.0003Z" fill="#ACACAC"/>
</g>
<defs>
<clipPath id="clip0_2966_33038">
<rect width="48" height="48" fill="white"/>
</clipPath>
</defs>
</svg>
