<svg width="25" height="28" viewBox="0 0 25 28" fill="none" xmlns="http://www.w3.org/2000/svg">
<path d="M17.3892 6.99594H20.2335L16.793 3.67029V6.47631C16.793 6.7498 17.0719 6.99594 17.3892 6.99594Z" fill="#FF7A00"/>
<path d="M23.4765 7.09435L16.8197 0.650908C16.4149 0.257081 15.8625 0.0328184 15.2936 0.0328184L2.75679 0C1.23618 0 0 1.22524 0 2.73491V25.2596C0 26.7419 1.27447 28 2.78414 28H21.3268C22.8091 28 24.0125 26.7693 24.0125 25.2542V8.40164C24.0125 7.89295 23.8211 7.42801 23.4765 7.09435ZM16.7923 3.67025L20.2329 6.9959H17.3886C17.0713 6.9959 16.7923 6.74976 16.7923 6.47079V3.67025ZM21.3268 25.8121H2.78414C2.47783 25.8121 2.18793 25.5441 2.18793 25.2542V2.73491C2.18793 2.44501 2.45595 2.18793 2.75679 2.18793L14.6044 2.22075V6.47079C14.6044 7.96406 15.8515 9.18382 17.3886 9.18382H21.8246V25.2542C21.8246 25.5276 21.6386 25.8121 21.3268 25.8121Z" fill="#FF7A00"/>
<path d="M15.7521 11.0983H5.85178C5.2501 11.0983 4.75781 11.5906 4.75781 12.1922C4.75781 12.7939 5.2501 13.2862 5.85178 13.2862H15.7521C16.3538 13.2862 16.8461 12.7939 16.8461 12.1922C16.8461 11.5906 16.3538 11.0983 15.7521 11.0983Z" fill="#FF7A00"/>
<path d="M5.79709 8.91034H12.1421C12.7438 8.91034 13.236 8.41806 13.236 7.81638C13.236 7.2147 12.7438 6.72241 12.1421 6.72241H5.79709C5.19541 6.72241 4.70312 7.2147 4.70312 7.81638C4.70312 8.41806 5.19541 8.91034 5.79709 8.91034Z" fill="#FF7A00"/>
<path d="M15.7521 15.4741H5.85178C5.2501 15.4741 4.75781 15.9664 4.75781 16.5681C4.75781 17.1698 5.2501 17.662 5.85178 17.662H15.7521C16.3538 17.662 16.8461 17.1698 16.8461 16.5681C16.8461 15.9664 16.3538 15.4741 15.7521 15.4741Z" fill="#FF7A00"/>
<path d="M15.7521 19.9594H5.85178C5.2501 19.9594 4.75781 20.4516 4.75781 21.0533C4.75781 21.655 5.2501 22.1473 5.85178 22.1473H15.7521C16.3538 22.1473 16.8461 21.655 16.8461 21.0533C16.8461 20.4516 16.3538 19.9594 15.7521 19.9594Z" fill="#FF7A00"/>
</svg>
