<svg width="19" height="20" viewBox="0 0 19 20" fill="none" xmlns="http://www.w3.org/2000/svg">
<path d="M19 18.5063L13.6927 13.1989C14.968 11.6678 15.604 9.70393 15.4683 7.71584C15.3326 5.72774 14.4357 3.8685 12.9641 2.52488C11.4924 1.18127 9.55947 0.456733 7.56726 0.502C5.57505 0.547267 3.67699 1.35885 2.26792 2.76792C0.858851 4.17699 0.047267 6.07505 0.00200021 8.06726C-0.0432665 10.0595 0.681269 11.9924 2.02488 13.4641C3.3685 14.9357 5.22774 15.8326 7.21584 15.9683C9.20393 16.104 11.1678 15.468 12.6989 14.1927L18.0063 19.5L19 18.5063ZM1.43068 8.25563C1.43068 7.00467 1.80163 5.78181 2.49662 4.74168C3.19162 3.70154 4.17944 2.89086 5.33518 2.41214C6.49091 1.93341 7.76265 1.80816 8.98957 2.05221C10.2165 2.29626 11.3435 2.89865 12.2281 3.78321C13.1126 4.66778 13.715 5.79477 13.9591 7.0217C14.2031 8.24862 14.0779 9.52035 13.5991 10.6761C13.1204 11.8318 12.3097 12.8196 11.2696 13.5146C10.2295 14.2096 9.00659 14.5806 7.75563 14.5806C6.07872 14.5787 4.47102 13.9118 3.28527 12.726C2.09951 11.5402 1.43254 9.93254 1.43068 8.25563Z" fill="#BFC5C9"/>
</svg>
